<svg xmlns="http://www.w3.org/2000/svg" width="278.379" height="81.252" viewBox="0 0 278.379 81.252"><g transform="translate(301.172 156.165)"><path d="M-29.7-141.1h12.932A16.643,16.643,0,0,1-4.4-136C-1.628-133,.151-128.659.151-122.86a19.736,19.736,0,0,1-5.06,13.507,16.719,16.719,0,0,1-12.576,5.059H-29.7a.326.326,0,0,1-.243-.114.368.368,0,0,1-.077-.152.354.354,0,0,1,.009-.187.371.371,0,0,1,.181-.209c.741-.417.741-1.862.741-2.947V-137.49a10.671,10.671,0,0,0-.1-1.835,1.652,1.652,0,0,0-.594-1.141.3.3,0,0,1-.205-.156.293.293,0,0,1-.035-.166.325.325,0,0,1,.034-.123.346.346,0,0,1,.294-.189m5.745,34.754h5.049c6.344,0,13.871-3.413,13.871-16.516,0-5.3-1.378-9.31-3.629-12.05a12.466,12.466,0,0,0-9.914-4.491h-5.378Z" transform="translate(-22.943 -1.275)" fill="#fff"></path><path d="M-69.214-103.537h-1.369a16.487,16.487,0,0,1-12.255-5.644,19.967,19.967,0,0,1-4.722-13.526,19.561,19.561,0,0,1,4.886-13.607,17.425,17.425,0,0,1,12.8-5.562,17.193,17.193,0,0,1,12.608,5.647A19.616,19.616,0,0,1-52.4-122.707a19.609,19.609,0,0,1-4.657,13.257,16.906,16.906,0,0,1-12.156,5.913m11.826-11.7a21.671,21.671,0,0,0-2.038-12.506,22.571,22.571,0,0,0-6.219-8.218,12.771,12.771,0,0,0-7.892-2.978,8.731,8.731,0,0,0-1.882.2,7.963,7.963,0,0,0-1.729.6c-2.98,1.433-4.91,4.341-5.533,8.034a21.294,21.294,0,0,0,2.146,12.443,22.071,22.071,0,0,0,6.543,7.985,14.2,14.2,0,0,0,8.234,3.182,7.75,7.75,0,0,0,1.554-.15,6.4,6.4,0,0,0,1.456-.481c2.881-1.359,4.743-4.354,5.36-8.1" transform="translate(-18.075 -1.209)" fill="#fff"></path><path d="M-110.107-106.111a1.644,1.644,0,0,0,.585,1.155.369.369,0,0,1,.182.207l0,0a.349.349,0,0,1,.009.186v0a.374.374,0,0,1-.076.148.327.327,0,0,1-.243.114h-2.3c-4.17,0-8.393-9.089-12.473-17.873-3.383-7.285-6.669-14.356-9.578-15.654V-107.9a10.244,10.244,0,0,0,.1,1.788,1.593,1.593,0,0,0,.636,1.159l.221.124-.114.226c-.026.051-.026.035-.026.046v.265H-137.2v-.585l.136-.076c.741-.416.741-1.863.741-2.947V-137.49a10.645,10.645,0,0,0-.1-1.828,1.466,1.466,0,0,0-.625-1.112.371.371,0,0,1-.191-.211l0-.005a.344.344,0,0,1-.007-.189.349.349,0,0,1,.076-.147.32.32,0,0,1,.243-.114h4.876c5.377,0,10.024,10.182,13.832,18.525,2.3,5.049,4.3,9.412,5.834,10.291l0-26.405c0-.917.007-1.4-.608-1.731l-.141-.075v-.587l3.758-.018v.59l-.141.075c-.681.362-.681,1.809-.681,2.944V-107.9a10.955,10.955,0,0,0,.1,1.79" transform="translate(-13.87 -1.275)" fill="#fff"></path><path d="M-159.871-137.49V-107.9a10.959,10.959,0,0,0,.1,1.79,1.628,1.628,0,0,0,.591,1.159.415.415,0,0,1,.187.2.339.339,0,0,1,.024.181.313.313,0,0,1-.1.191.358.358,0,0,1-.241.087h-6.246a.323.323,0,0,1-.243-.114.357.357,0,0,1-.077-.152.341.341,0,0,1,.01-.186.367.367,0,0,1,.18-.21c.741-.417.741-1.862.741-2.946V-137.49a10.567,10.567,0,0,0-.1-1.829,1.46,1.46,0,0,0-.625-1.111.372.372,0,0,1-.19-.211l0-.005a.355.355,0,0,1-.008-.185v0a.365.365,0,0,1,.076-.147.324.324,0,0,1,.243-.115h6.246a.354.354,0,0,1,.241.088.313.313,0,0,1,.1.192.333.333,0,0,1-.024.18.416.416,0,0,1-.2.2c-.68.362-.68,1.808-.68,2.944" transform="translate(-11.447 -1.275)" fill="#fff"></path><path d="M-193.615-138.507a5.608,5.608,0,0,0-.557-2.207l-.19-.383h6.606v.265c0,4.549-13.735,36.287-13.775,36.378l-.069.16h-1.836l-.066-.17c-.027-.074-10.033-25.933-12.22-31.95v0a16.79,16.79,0,0,0-2.013-4.041l-.155-.234-.253-.406h7.383a.356.356,0,0,1,.185.053.344.344,0,0,1,.122.129l0,0a.308.308,0,0,1,.025.215.313.313,0,0,1-.062.129,1.906,1.906,0,0,0-.265.964,6.513,6.513,0,0,0,.516,2.569c1.549,4.13,8.108,22.469,9.414,26.121,1.171-2.786,5.873-14.476,7.1-25.276a13.685,13.685,0,0,0,.114-2.319" transform="translate(-7.026 -1.275)" fill="#fff"></path><path d="M-66.158-69.633c1.258,0,2.141-.688,2.141-1.776v-.017c0-.977-.645-1.461-2.006-1.767-1.316-.3-1.614-.569-1.614-1.139v-.017c0-.5.467-.909,1.223-.909a2.667,2.667,0,0,1,1.751.663l.459-.629a3.252,3.252,0,0,0-2.192-.764,1.847,1.847,0,0,0-2.056,1.716v.017c0,1.044.679,1.512,2.073,1.8,1.257.272,1.546.587,1.546,1.1v.017c0,.578-.518.968-1.3.968a2.893,2.893,0,0,1-2.065-.849l-.5.594a3.7,3.7,0,0,0,2.54.986" transform="translate(-19.672 -6.784)" fill="#fff"></path><rect width="0.824" height="6.186" transform="translate(-81.062 -82.689)" fill="#fff"></rect><path d="M-56.6-69.711h.8V-74.58l3.815,4.869h.672V-75.9h-.807v4.75l-3.722-4.75H-56.6Z" transform="translate(-20.695 -6.792)" fill="#fff"></path><path d="M-44.869-69.619a3.215,3.215,0,0,0,2.49-1.087l-.535-.527a2.6,2.6,0,0,1-1.929.867,2.336,2.336,0,0,1-2.286-2.447v-.016a2.321,2.321,0,0,1,2.286-2.43,2.627,2.627,0,0,1,1.887.825l.535-.6a3.24,3.24,0,0,0-2.413-.968,3.121,3.121,0,0,0-3.143,3.195v.016a3.084,3.084,0,0,0,3.11,3.178" transform="translate(-21.425 -6.783)" fill="#fff"></path><path d="M-39.235-69.711h4.546v-.74h-3.73v-2h3.288v-.74h-3.288v-1.963h3.687v-.74h-4.5Z" transform="translate(-22.165 -6.792)" fill="#fff"></path><path d="M-27.848-69.715h.807v-6.228h-.587l-1.554.526.187.664,1.147-.357Z" transform="translate(-23.015 -6.788)" fill="#fff"></path><path d="M-21.724-72.643a1.3,1.3,0,0,1-1.436-1.274v-.017a1.337,1.337,0,0,1,1.4-1.359,1.367,1.367,0,0,1,1.495,1.317v.016a1.366,1.366,0,0,1-1.461,1.317m-.17,2.286a2.179,2.179,0,0,1-1.5-.637l-.459.629a2.881,2.881,0,0,0,1.929.748c1.563,0,2.6-1.386,2.6-3.348v-.016a3.142,3.142,0,0,0-.765-2.388,2.187,2.187,0,0,0-1.657-.637A2.118,2.118,0,0,0-23.993-73.9v.017a1.974,1.974,0,0,0,2.167,1.937,1.936,1.936,0,0,0,1.666-.892v.086c0,1.18-.569,2.4-1.734,2.4" transform="translate(-23.454 -6.783)" fill="#fff"></path><path d="M-14.193-70.33c-.96,0-1.521-.51-1.521-1.087v-.017c0-.654.672-1.1,1.521-1.1s1.512.45,1.512,1.1v.017c0,.578-.561,1.087-1.512,1.087m0-2.872a1.184,1.184,0,0,1-1.325-1.071v-.017c0-.568.552-1,1.325-1,.756,0,1.317.434,1.317,1.011v.016c0,.637-.578,1.063-1.317,1.063m0,3.568c1.325,0,2.328-.7,2.328-1.768v-.016a1.647,1.647,0,0,0-1.223-1.5,1.539,1.539,0,0,0,1.011-1.4v-.016c0-.96-.951-1.649-2.115-1.649s-2.125.688-2.125,1.649v.016a1.518,1.518,0,0,0,1.011,1.4,1.613,1.613,0,0,0-1.224,1.512v.017c0,1.054,1,1.758,2.337,1.758" transform="translate(-24.086 -6.784)" fill="#fff"></path><path d="M-6.933-69.609A2.043,2.043,0,0,0-4.7-71.657v-.016a1.928,1.928,0,0,0-2.133-1.912,2.8,2.8,0,0,0-1.147.246l.119-1.818H-4.97v-.74h-3.6l-.178,3.016.526.349a2.645,2.645,0,0,1,1.249-.323c.858,0,1.461.492,1.461,1.216v.016a1.285,1.285,0,0,1-1.411,1.274,2.5,2.5,0,0,1-1.707-.816l-.527.587a3.124,3.124,0,0,0,2.226.968" transform="translate(-24.71 -6.792)" fill="#fff"></path><path d="M-212.157-83.654a2.787,2.787,0,0,0,2-.753,3.279,3.279,0,0,0,.831-2.39v-6.078h-1.039v6.091c0,1.442-.753,2.182-1.779,2.182a2.339,2.339,0,0,1-2.078-1.3l-.741.636a3.113,3.113,0,0,0,2.806,1.611" transform="translate(-7.295 -5.355)" fill="#fff"></path><path d="M-190.616-83.784h6.637v-.935h-5.61V-87.9h4.961v-.936h-4.961v-3.1h5.546v-.935h-6.572Z" transform="translate(-9.355 -5.355)" fill="#fff"></path><path d="M-163.094-83.722h.857l2.507-7.377,2.493,7.377h.871l3.247-9.157H-154.2l-2.6,7.572-2.494-7.6h-.844l-2.493,7.6-2.6-7.572h-1.117Z" transform="translate(-11.409 -5.353)" fill="#fff"></path><path d="M-134.332-83.784h6.637v-.935h-5.61V-87.9h4.961v-.936h-4.961v-3.1h5.546v-.935h-6.572Z" transform="translate(-14.118 -5.355)" fill="#fff"></path><path d="M-109.29-83.784h6.143v-.948h-5.117v-8.143h-1.026Z" transform="translate(-16.237 -5.355)" fill="#fff"></path><path d="M-84.972-83.784h6.143v-.948h-5.117v-8.143h-1.026Z" transform="translate(-18.294 -5.355)" fill="#fff"></path><path d="M-60.654-83.784h6.637v-.935h-5.61V-87.9h4.961v-.936h-4.961v-3.1h5.546v-.935h-6.572Z" transform="translate(-20.352 -5.355)" fill="#fff"></path><path d="M-34.586-88.24v-3.689h2.806c1.467,0,2.324.676,2.324,1.793v.026c0,1.169-.974,1.87-2.338,1.87Zm-1.026,4.455h1.026v-3.532h2.6l2.636,3.532h1.26L-30.884-87.5a2.662,2.662,0,0,0,2.468-2.65v-.026a2.511,2.511,0,0,0-.7-1.792,3.584,3.584,0,0,0-2.585-.909h-3.91Z" transform="translate(-22.471 -5.355)" fill="#fff"></path><path d="M-6.757-83.666c1.805,0,3.1-1.013,3.1-2.572v-.026c0-1.39-.935-2.13-2.961-2.572-2-.428-2.468-.909-2.468-1.766v-.026c0-.818.753-1.468,1.935-1.468a4,4,0,0,1,2.624.987l.6-.792a4.741,4.741,0,0,0-3.195-1.117c-1.727,0-2.988,1.052-2.988,2.481v.026c0,1.494.961,2.169,3.053,2.623,1.909.4,2.364.883,2.364,1.728v.026c0,.9-.806,1.546-2.026,1.546a4.332,4.332,0,0,1-3.118-1.286l-.636.753a5.32,5.32,0,0,0,3.715,1.455" transform="translate(-24.599 -5.343)" fill="#fff"></path><path d="M-86.618-70.26H-210.884c-1.619,2-2.353,3.3-4.861,1.515a9.359,9.359,0,0,1-1.946-1.843l.014-.018-.014-.017a9.359,9.359,0,0,1,1.946-1.843c2.507-1.783,3.241-.48,4.861,1.515H-86.618Z" transform="translate(-7.064 -7.011)" fill="#fff"></path><path d="M-273.944-150.481h2.7a8.359,8.359,0,0,1,1.271-3.224,11.731,11.731,0,0,1,2.3-2.46,11.731,11.731,0,0,1,2.3,2.46,8.389,8.389,0,0,1,1.271,3.224h2.7a1.676,1.676,0,0,1,1.671,1.671,1.676,1.676,0,0,1-1.671,1.672h-12.554a1.676,1.676,0,0,1-1.671-1.671h0a1.676,1.676,0,0,1,1.671-1.671m-8.921,35.023A211.418,211.418,0,0,0-288.9-95.036c-1.12,4.918-.795,5.58,2.993,7.63a8.427,8.427,0,0,1,1.708,1.225c1.307-8.9,2.041-16.789,4.938-29.3,2.191-.011,4.506-.019,6.868-.023a237.606,237.606,0,0,0-6.615,30.843h0l0,.009,0,.016.006,0c.69,3.121,10.574,4.046,11.494,6.973.922-2.932,10.831-3.856,11.5-6.986l0,0,0-.01v0h0c-1.415-7.247-2.744-15.23-4.455-22.39-.768-3.21-1.568-6.016-2.346-8.453,2.331,0,4.614.012,6.777.023,2.9,12.511,3.63,20.4,4.938,29.3a8.4,8.4,0,0,1,1.708-1.225c3.787-2.05,4.112-2.711,2.993-7.63a213.1,213.1,0,0,0-6.1-20.624c-.228-1.01-.2-3.82,3.292-3.862-4.538.049-13.067.041-18.445.014-5.378.027-13.906.036-18.445-.014,3.71.045,3.51,3.207,3.249,4.026Zm-10.735,1.151c-1.269,3.565-2.758,8.172-4.224,13.854-.989,3.834-.327,5.032.784,5.944.838.69,2.136,1.162,3.19,2.472.941-5.839,2.456-18.885,5.332-27.5h-2.821l-1.531,0a1.849,1.849,0,0,1-1.188.424,1.979,1.979,0,0,1-.723-.124,1.532,1.532,0,0,1-.563-.36,1.43,1.43,0,0,1-.382-1c-.023-1.908,2.129-1.923,3.7-1.933l.423,0c2.7-.042,6.261-.075,10.25-.1q13.7-.069,27.4,0c3.99.021,7.547.054,10.254.1l.422,0c1.565.01,3.717.026,3.694,1.935a1.5,1.5,0,0,1-1.666,1.486,1.852,1.852,0,0,1-1.19-.424h-1.542v0h-2.765c2.876,8.612,4.392,21.658,5.333,27.5,1.055-1.31,2.351-1.781,3.189-2.472,1.111-.913,1.772-2.111.784-5.944-1.465-5.678-2.952-10.282-4.221-13.846.124.021.247.039.37.055a6.862,6.862,0,0,0,3.426-.39,5.735,5.735,0,0,0,2.769-2.381,6.911,6.911,0,0,0,.228-6.615c-2.015-3.838-6.885-4.287-10.745-4.183-2.837.077-6.293.115-10.052.127-7.9.027-15.932.027-23.837,0-3.759-.012-7.217-.05-10.053-.127-3.857-.1-8.733.345-10.745,4.186a6.43,6.43,0,0,0,.092,6.612,5.736,5.736,0,0,0,2.765,2.383,6.892,6.892,0,0,0,3.428.388q.209-.026.417-.063m3.037-22.844h4.781v-2.359a.684.684,0,0,1,.684-.691c4.177.085,5.546-2.317,8.821-3.826a12.675,12.675,0,0,1,5.351-1.1h7.442a12.681,12.681,0,0,1,5.351,1.1c3.275,1.509,4.645,3.911,8.821,3.826a.684.684,0,0,1,.684.691v2.359h3.879a3.265,3.265,0,0,1,3.582,3.4,3.252,3.252,0,0,1-3.582,3.32h-45.814a3.383,3.383,0,0,1-3.6-3.564,3.328,3.328,0,0,1,3.6-3.152" transform="translate(0 0)" fill="#b89742" fill-rule="evenodd"></path></g></svg>